<svg width="19" height="18" viewBox="0 0 19 18" fill="none" xmlns="http://www.w3.org/2000/svg">
<path d="M18.4026 10.7808V17.585H14.4578V11.2368C14.4578 9.64247 13.888 8.55433 12.4602 8.55433C11.3699 8.55433 10.7217 9.28687 10.4362 9.99684C10.3328 10.2504 10.3054 10.6028 10.3054 10.9584V17.585H6.35975C6.35975 17.585 6.41273 6.83276 6.35975 5.71984H10.3054V7.40112C10.2976 7.41394 10.2865 7.42725 10.2798 7.4397H10.3054V7.40112C10.8296 6.5946 11.7652 5.44091 13.8606 5.44091C16.4569 5.44091 18.4026 7.13672 18.4026 10.7808ZM2.23206 0C0.882692 0 0 0.885563 0 2.04969C0 3.18873 0.857667 4.10011 2.18018 4.10011H2.20655C3.58265 4.10011 4.43787 3.18873 4.43787 2.04969C4.41212 0.885563 3.58265 0 2.23206 0ZM0.23462 17.585H4.17835V5.71984H0.23462V17.585Z" fill="#2E3038"/>
</svg>
