<svg width="35" height="28" viewBox="0 0 35 28" fill="none" xmlns="http://www.w3.org/2000/svg">
<path d="M15.12 3.024L8.424 15.876L5.076 16.74C5.436 15.948 5.868 15.3 6.372 14.796C6.948 14.292 7.596 14.04 8.316 14.04C9.828 14.04 11.196 14.652 12.42 15.876C13.716 17.1 14.364 18.684 14.364 20.628C14.364 22.572 13.644 24.3 12.204 25.812C10.836 27.252 9.18 27.972 7.236 27.972C5.292 27.972 3.6 27.252 2.16 25.812C0.72 24.372 0 22.644 0 20.628C0 19.764 0.18 18.792 0.54 17.712C0.9 16.56 1.512 15.12 2.376 13.392L9.612 0L15.12 3.024ZM34.992 3.024L28.296 15.876L24.948 16.74C25.308 15.948 25.74 15.3 26.244 14.796C26.82 14.292 27.468 14.04 28.188 14.04C29.7 14.04 31.068 14.652 32.292 15.876C33.588 17.1 34.236 18.684 34.236 20.628C34.236 22.572 33.516 24.3 32.076 25.812C30.708 27.252 29.052 27.972 27.108 27.972C25.164 27.972 23.472 27.252 22.032 25.812C20.592 24.372 19.872 22.644 19.872 20.628C19.872 19.764 20.052 18.792 20.412 17.712C20.772 16.56 21.384 15.12 22.248 13.392L29.484 0L34.992 3.024Z" fill="#546E54" fill-opacity="0.2"/>
</svg>
