<svg width="44" height="44" viewBox="0 0 44 44" fill="none" xmlns="http://www.w3.org/2000/svg">
<g>
<path d="M-7.62939e-06 22C-7.62939e-06 9.84979 9.84973 0 22 0C34.1503 0 44 9.84979 44 22C44 34.1502 34.1503 44 22 44C9.84973 44 -7.62939e-06 34.1502 -7.62939e-06 22ZM7.33333 22C7.33897 22.2649 7.38522 22.5155 7.65063 22.7756L16.6763 32.3654C17.0912 32.8078 17.8356 32.8379 18.2804 32.4004C18.7017 31.9861 18.7218 31.243 18.3154 30.8138L11.0702 23.1282H35.5382C36.1613 23.1282 36.6664 22.6231 36.6664 22C36.6664 21.3769 36.1613 20.8718 35.5382 20.8718H11.0702L18.3154 13.1859C18.7215 12.7567 18.7193 11.977 18.2804 11.5817C17.7891 11.1396 17.0977 11.1989 16.6763 11.6347L7.65063 21.2245C7.49043 21.3927 7.33333 21.7389 7.33333 22Z" fill="black"/>
</g>
</svg>
