<svg width="44" height="44" viewBox="0 0 44 44" fill="none" xmlns="http://www.w3.org/2000/svg">
<path d="M44 22C44 9.84979 34.1503 0 22 0C9.84974 0 0 9.84979 0 22C0 34.1502 9.84974 44 22 44C34.1503 44 44 34.1502 44 22ZM36.6667 22C36.661 22.2649 36.6148 22.5155 36.3494 22.7756L27.3237 32.3654C26.9088 32.8078 26.1644 32.8379 25.7196 32.4004C25.2983 31.9861 25.2782 31.243 25.6846 30.8138L32.9298 23.1282H8.46182C7.83871 23.1282 7.33361 22.6231 7.33361 22C7.33361 21.3769 7.83871 20.8718 8.46182 20.8718H32.9298L25.6846 13.1859C25.2785 12.7567 25.2807 11.977 25.7196 11.5817C26.2109 11.1396 26.9023 11.1989 27.3237 11.6347L36.3494 21.2245C36.5096 21.3927 36.6667 21.7389 36.6667 22Z" fill="black"/>
</svg>
